<svg xmlns="http://www.w3.org/2000/svg" viewBox="0 0 512 512" width="512" height="512">
  <defs>
    <linearGradient id="bgGradDark" x1="0%" y1="0%" x2="100%" y2="100%">
      <stop offset="0%" style="stop-color:#1E1E2E;stop-opacity:1" />
      <stop offset="100%" style="stop-color:#151525;stop-opacity:1" />
    </linearGradient>
    <linearGradient id="accentGradD" x1="0%" y1="0%" x2="100%" y2="100%">
      <stop offset="0%" style="stop-color:#3DDC84;stop-opacity:1" />
      <stop offset="100%" style="stop-color:#2BB568;stop-opacity:1" />
    </linearGradient>
  </defs>
  <rect x="16" y="16" width="480" height="480" rx="64" ry="64" fill="url(#bgGradDark)"/>
  <rect x="108" y="160" width="296" height="240" rx="24" ry="24" fill="none" stroke="#4A9AE8" stroke-width="16" opacity="0.95"/>
  <line x1="108" y1="220" x2="404" y2="220" stroke="#4A9AE8" stroke-width="16" opacity="0.95"/>
  <rect x="196" y="140" width="120" height="40" rx="12" ry="12" fill="none" stroke="#4A9AE8" stroke-width="14" opacity="0.95"/>
  <circle cx="256" cy="300" r="44" fill="url(#accentGradD)" opacity="0.9"/>
  <line x1="236" y1="258" x2="224" y2="238" stroke="#3DDC84" stroke-width="8" stroke-linecap="round" opacity="0.9"/>
  <line x1="276" y1="258" x2="288" y2="238" stroke="#3DDC84" stroke-width="8" stroke-linecap="round" opacity="0.9"/>
  <circle cx="240" cy="294" r="6" fill="#1E1E2E"/>
  <circle cx="272" cy="294" r="6" fill="#1E1E2E"/>
  <path d="M256 360 L256 390 M244 378 L256 390 L268 378" stroke="#4A9AE8" stroke-width="8" stroke-linecap="round" stroke-linejoin="round" fill="none" opacity="0.8"/>
  <text x="256" y="440" font-family="Segoe UI, Arial, sans-serif" font-size="48" font-weight="700" fill="#4A9AE8" text-anchor="middle" opacity="0.95">WSA</text>
</svg>
